<svg xmlns="http://www.w3.org/2000/svg" width="20" height="18" viewBox="0 0 20 18">
    <g fill="none" fill-rule="evenodd">
        <g fill="#CDCDED" fill-rule="nonzero">
            <g>
                <path d="M1315.542 40.29c.29.242.458.604.458.987v2.273l-4.25.868v10.627h-.083c0 1.412-1.4 2.555-3.125 2.555s-3.125-1.143-3.125-2.555c0-1.41 1.4-2.554 3.125-2.554.428 0 .837.07 1.209.198l-.001-10.646c0-.609.42-1.133 1.005-1.252l3.75-.766c.367-.075.748.022 1.037.264zM1301 52.49c.345 0 .625.458.625 1.023 0 .564-.28 1.022-.625 1.022h-4.375c-.345 0-.625-.458-.625-1.022 0-.565.28-1.022.625-1.022H1301zm5-5.108c.345 0 .625.457.625 1.022 0 .564-.28 1.021-.625 1.021h-9.375c-.345 0-.625-.457-.625-1.021 0-.565.28-1.022.625-1.022H1306zm0-5.11c.345 0 .625.458.625 1.023 0 .564-.28 1.021-.625 1.021h-9.375c-.345 0-.625-.457-.625-1.021 0-.565.28-1.022.625-1.022H1306z" transform="translate(-1296 -1632) translate(0 1592)"/>
            </g>
        </g>
    </g>
</svg>
