<svg xmlns="http://www.w3.org/2000/svg" width="24" height="24" viewBox="0 0 24 24">
    <g fill="none" fill-rule="evenodd">
        <g fill="#CDCDED">
            <g>
                <path d="M14 12c0 .54-.198 1.008-.595 1.405-.397.397-.865.595-1.405.595s-1.008-.198-1.405-.595C10.198 13.008 10 12.54 10 12s.198-1.008.595-1.405C10.992 10.198 11.46 10 12 10s1.008.198 1.405.595c.397.397.595.865.595 1.405zm0 7c0 .54-.198 1.008-.595 1.405-.397.397-.865.595-1.405.595s-1.008-.198-1.405-.595C10.198 20.008 10 19.54 10 19s.198-1.008.595-1.405C10.992 17.198 11.46 17 12 17s1.008.198 1.405.595c.397.397.595.865.595 1.405zm0-14c0 .54-.198 1.008-.595 1.405C13.008 6.802 12.54 7 12 7s-1.008-.198-1.405-.595C10.198 6.008 10 5.54 10 5s.198-1.008.595-1.405C10.992 3.198 11.46 3 12 3s1.008.198 1.405.595C13.802 3.992 14 4.46 14 5z" transform="translate(-1336 -1639) translate(1336 1639)"/>
            </g>
        </g>
    </g>
</svg>
