<svg xmlns="http://www.w3.org/2000/svg" width="18" height="14" viewBox="0 0 18 14">
    <g fill="none" fill-rule="evenodd">
        <g fill="#ADADC6" fill-rule="nonzero" stroke="#ADADC6">
            <g>
                <path d="M11.538 4.985h4.033c.1 0 .19.057.232.147.042.09.029.197-.035.273l-2.016 2.42c-.049.059-.121.093-.197.093-.076 0-.148-.034-.197-.092L11.34 5.405c-.063-.076-.077-.183-.035-.273.042-.09.133-.147.232-.147h0zM.256 7.035H4.29c.1 0 .19-.057.232-.147.042-.09.029-.196-.035-.273L2.47 4.195c-.05-.059-.121-.092-.197-.092-.076 0-.148.033-.197.092L.059 6.615c-.063.077-.077.183-.035.273.042.09.133.148.232.148z" transform="translate(-807 -1644) translate(808 1645)"/>
                <path d="M7.968 1.024c-1.552 0-2.94.725-3.857 1.864-.111.148-.293.223-.473.194-.18-.03-.33-.157-.393-.333-.062-.176-.025-.373.095-.513C4.836.379 7.25-.413 9.517.209c2.269.622 3.975 2.543 4.368 4.917h-1.017c-.476-2.387-2.524-4.102-4.9-4.102zm-4.9 6.153c.387 1.936 1.822 3.472 3.691 3.95 1.87.477 3.84-.188 5.066-1.712.112-.148.293-.222.473-.193.18.029.331.156.393.332.062.177.026.373-.095.514-1.495 1.856-3.909 2.648-6.177 2.027-2.268-.622-3.975-2.543-4.368-4.918h1.017z" transform="translate(-807 -1644) translate(808 1645)"/>
            </g>
        </g>
    </g>
</svg>
