<svg xmlns="http://www.w3.org/2000/svg" width="18" height="15" viewBox="0 0 18 15">
    <g fill="none" fill-rule="evenodd">
        <g fill="#ADADC6" fill-rule="nonzero" stroke="#ADADC6">
            <g>
                <path d="M0 2.331c0-.277.22-.502.492-.502h.493c2.168 0 3.768 1.247 4.799 2.431.482.556.851 1.109 1.108 1.541.256-.432.627-.985 1.109-1.54 1.03-1.185 2.63-2.432 4.799-2.432v1.005c-1.77 0-3.124 1.016-4.063 2.094-.507.587-.943 1.235-1.297 1.93.354.693.79 1.341 1.296 1.928.94 1.078 2.296 2.094 4.064 2.094v1.006c-2.168 0-3.768-1.247-4.799-2.432-.414-.479-.785-.994-1.109-1.54-.256.432-.626.985-1.108 1.54-1.031 1.185-2.631 2.432-4.8 2.432H.493c-.272 0-.492-.225-.492-.503s.22-.503.492-.503h.493c1.77 0 3.124-1.016 4.062-2.094.508-.587.943-1.235 1.298-1.929-.354-.694-.79-1.342-1.297-1.929C4.108 3.85 2.753 2.834.985 2.834H.492C.22 2.834 0 2.61 0 2.331z" transform="translate(-615 -1643) translate(616 1644)"/>
                <path d="M12.8 4.182V.25c0-.097.056-.185.144-.226.088-.042.191-.028.266.034l2.36 1.966c.12.1.12.284 0 .384l-2.36 1.966c-.075.062-.178.075-.266.034-.088-.04-.144-.13-.144-.226zm0 9V9.25c0-.097.056-.185.144-.226.088-.042.191-.028.266.034l2.36 1.966c.12.1.12.284 0 .384l-2.36 1.966c-.075.062-.178.075-.266.034-.088-.04-.144-.13-.144-.226h0z" transform="translate(-615 -1643) translate(616 1644)"/>
            </g>
        </g>
    </g>
</svg>
