<svg xmlns="http://www.w3.org/2000/svg" width="25" height="22" viewBox="0 0 25 22">
    <g fill="none" fill-rule="evenodd">
        <g fill="#CDCDED" fill-rule="nonzero">
            <path d="M1320.428 1640.354c.362.296.572.74.572 1.208v2.78l-5.313 1.063v13h-.104c0 1.727-1.75 3.125-3.906 3.125s-3.906-1.398-3.906-3.125c0-1.726 1.75-3.125 3.906-3.125.536 0 1.046.087 1.511.243v-13.024c0-.744.526-1.385 1.256-1.531l4.687-.938c.46-.091.935.027 1.297.324zm-18.178 14.926c.431 0 .781.56.781 1.25s-.35 1.25-.781 1.25h-5.469c-.431 0-.781-.56-.781-1.25s.35-1.25.781-1.25h5.469zm6.25-6.25c.431 0 .781.56.781 1.25s-.35 1.25-.781 1.25h-11.719c-.431 0-.781-.56-.781-1.25s.35-1.25.781-1.25h11.719zm0-6.25c.431 0 .781.56.781 1.25s-.35 1.25-.781 1.25h-11.719c-.431 0-.781-.56-.781-1.25s.35-1.25.781-1.25h11.719z" transform="translate(-1296 -1640)"/>
        </g>
    </g>
</svg>
