<svg xmlns="http://www.w3.org/2000/svg" width="244" height="165" viewBox="0 0 244 165">
    <path fill="#FFF" fill-rule="nonzero" d="M1.788 162.883C.644 161.81 0 160.38 0 158.663V6.152c0-1.717.572-3.148 1.788-4.364C2.933.644 4.435 0 6.152 0h26.54c3.934 0 6.723 1.717 8.44 5.15l40.489 72.393L122.252 5.15c1.717-3.433 4.507-5.15 8.441-5.15h26.54c1.716 0 3.147.572 4.363 1.788 1.144 1.145 1.788 2.647 1.788 4.364v152.51c0 1.718-.572 3.148-1.788 4.221-1.145 1.073-2.647 1.646-4.364 1.646h-29.83c-1.573 0-2.932-.573-4.149-1.789-1.144-1.144-1.788-2.575-1.788-4.077V73.108L96.07 119.605c-2.002 3.577-4.792 5.437-8.226 5.437H75.182c-3.147 0-5.865-1.789-8.226-5.437l-25.18-46.497v85.555c0 1.717-.572 3.147-1.788 4.22-1.145 1.073-2.647 1.646-4.364 1.646H6.009c-1.574 0-3.005-.573-4.22-1.646zm200.296 0c-1.144-1.073-1.788-2.503-1.788-4.22v-31.046c0-1.717.572-3.147 1.788-4.364 1.145-1.144 2.647-1.788 4.364-1.788h31.046c1.716 0 3.147.572 4.22 1.788 1.073 1.145 1.645 2.647 1.645 4.364v31.046c0 1.574-.572 2.933-1.645 4.077-1.073 1.145-2.504 1.789-4.22 1.789h-31.046c-1.717 0-3.22-.573-4.364-1.646z"/>
</svg>
